<svg width="537" height="438" viewBox="0 0 537 438" fill="none" xmlns="http://www.w3.org/2000/svg">
<path d="M267.326 316.541V438L402.163 298.977L267.326 316.541Z" fill="#3DAAF5"/>
<path d="M402.163 298.977V159.954L326.472 221.842L267.326 316.541L402.163 298.977Z" fill="#3DD9F5"/>
<path d="M267.326 270.201V316.541L326.472 221.842L267.326 270.201Z" fill="#3DB7F5"/>
<path d="M204.666 321.434L267.326 316.541V270.201L204.666 321.434Z" fill="#3D9FF5"/>
<path d="M267.326 159.954L204.666 321.434L267.326 270.201V159.954Z" fill="#3DAAF5"/>
<path d="M365.125 159.954H267.326V270.201L326.472 221.842L365.125 159.954Z" fill="#C3FFF1"/>
<path d="M402.163 100.651L267.326 159.954H365.125L402.163 100.651Z" fill="#3DF5C0"/>
<path d="M402.163 159.954V100.651L365.125 159.954H402.163Z" fill="#3DF5D2"/>
<path d="M326.472 221.842L402.163 159.954H365.125L326.472 221.842Z" fill="#3DAAF5"/>
<path d="M402.163 100.651V159.954H537L469.581 71L402.163 100.651Z" fill="#3DF5C0"/>
<path d="M402.163 298.977L537 159.954H402.163V298.977Z" fill="#3DF5D2"/>
<path d="M267.326 316.541L204.666 321.434L183 377.27L267.326 438V316.541Z" fill="#3D65F5"/>
<path d="M537 159.954L402.163 298.977L475.22 320.365L537 159.954Z" fill="#3DEDF5"/>
<path d="M537 338.451V159.954L475.22 320.365L537 338.451Z" fill="#3DF5C0"/>
<path d="M456.861 368.034L537 338.451L475.22 320.365L456.861 368.034Z" fill="#3DF5D2"/>
<path d="M429.915 438L537 338.451L456.861 368.034L429.915 438Z" fill="#3DEDF5"/>
<path d="M402.163 298.977L418.756 382.1L456.861 368.034L475.22 320.365L402.163 298.977Z" fill="#A2EDF5"/>
<path d="M429.915 438L456.861 368.034L418.756 382.1L429.915 438Z" fill="#3DAAF5"/>
<path d="M402.163 298.977L267.326 438L418.756 382.1L402.163 298.977Z" fill="#3DB2F5"/>
<path d="M267.326 438H429.915L418.756 382.1L267.326 438Z" fill="#3D65F5"/>
<path fill-rule="evenodd" clip-rule="evenodd" d="M405.377 81.4988L313.751 5.07606L363.248 14.2563C345.701 10.808 328.902 7.55062 313.751 5.07606C253.529 -4.75976 219.336 -2.22739 267.587 49.8495C327.083 114.063 375.706 105.543 405.377 81.4988Z" fill="#3DAAF5"/>
<path d="M405.377 81.4988C426.071 64.7294 437.545 40.4089 437.059 27.9459C412.584 24.0324 387.217 18.9663 363.248 14.2563L313.751 5.07606L405.377 81.4988Z" fill="#3DD9F5"/>
<path fill-rule="evenodd" clip-rule="evenodd" d="M161.377 366.499L69.7509 290.076L119.248 299.256C101.701 295.808 84.9019 292.551 69.7509 290.076C9.52859 280.24 -24.6638 282.773 23.5868 334.849C83.0826 399.063 131.706 390.543 161.377 366.499Z" fill="#3DAAF5"/>
<path d="M161.377 366.499C182.071 349.729 193.545 325.409 193.059 312.946C168.584 309.032 143.217 303.966 119.248 299.256L69.7509 290.076L161.377 366.499Z" fill="#3DD9F5"/>
<path fill-rule="evenodd" clip-rule="evenodd" d="M204.377 253.499L112.751 177.076L162.248 186.256C144.701 182.808 127.902 179.551 112.751 177.076C52.5286 167.24 18.3362 169.773 66.5868 221.849C126.083 286.063 174.706 277.543 204.377 253.499Z" fill="#3DAAF5"/>
<path d="M204.377 253.499C225.071 236.729 236.545 212.409 236.059 199.946C211.584 196.032 186.217 190.966 162.248 186.256L112.751 177.076L204.377 253.499Z" fill="#3DD9F5"/>
<path fill-rule="evenodd" clip-rule="evenodd" d="M267.377 148.499L175.751 72.0761L225.248 81.2563C207.701 77.808 190.902 74.5506 175.751 72.0761C115.529 62.2402 81.3362 64.7726 129.587 116.849C189.083 181.063 237.706 172.543 267.377 148.499Z" fill="#3DAAF5"/>
<path d="M267.377 148.499C288.071 131.729 299.545 107.409 299.059 94.9459C274.584 91.0324 249.217 85.9663 225.248 81.2563L175.751 72.0761L267.377 148.499Z" fill="#3DD9F5"/>
</svg>
